<svg xmlns="http://www.w3.org/2000/svg" xmlns:xlink="http://www.w3.org/1999/xlink" width="1024" zoomAndPan="magnify" viewBox="0 0 768 767.999994" height="1024" preserveAspectRatio="xMidYMid meet" version="1.0"><defs><clipPath id="c1982f74d2"><path d="M 230.398438 317 L 535 317 L 535 511 L 230.398438 511 Z M 230.398438 317 " clip-rule="nonzero"/></clipPath><clipPath id="efb670c387"><path d="M 437 477 L 517 477 L 517 534.953125 L 437 534.953125 Z M 437 477 " clip-rule="nonzero"/></clipPath></defs><rect x="-76.8" width="921.6" fill="#ffffff" y="-76.799999" height="921.599993" fill-opacity="1"/><rect x="-76.8" width="921.6" fill="#cc7a00" y="-76.799999" height="921.599993" fill-opacity="1"/><g clip-path="url(#c1982f74d2)"><path fill="#f9f9f9" d="M 236.039062 400.152344 C 232.25 402.425781 231.578125 406.035156 231.449219 410.433594 C 230.234375 415.523438 231.449219 420.90625 232.574219 426.097656 C 233.90625 432.324219 237.1875 438.261719 243.078125 441.113281 C 243.125 441.160156 382.738281 508.832031 382.738281 508.832031 C 388.488281 511.632812 395.140625 510.921875 400.179688 507.070312 C 400.179688 507.070312 422.320312 490.113281 447.910156 470.503906 L 526.90625 413.226562 C 534.660156 407.613281 536.773438 397.625 532.558594 386.503906 C 532.558594 386.5 532.558594 386.496094 532.554688 386.492188 C 532.375 386.046875 532.433594 386.183594 532.417969 386.144531 C 532.019531 384.347656 531.082031 382.820312 530.664062 382.464844 C 528.238281 379.46875 527.796875 380.4375 503.59375 368.523438 L 455.285156 347.390625 C 454.390625 346.992188 453.34375 347.402344 452.953125 348.300781 C 452.5625 349.195312 452.96875 350.242188 453.863281 350.632812 L 500.824219 371.171875 C 526.917969 383.824219 526.503906 382.804688 528.019531 384.78125 C 528.230469 385.246094 529.117188 387.191406 529.15625 387.703125 C 529.316406 389.707031 528.425781 391.574219 526.785156 392.703125 L 390.8125 485.980469 C 389.195312 487.089844 387.105469 487.230469 385.355469 486.378906 L 334.023438 461.046875 C 333.144531 460.609375 332.082031 460.976562 331.652344 461.847656 C 331.222656 462.722656 331.582031 463.789062 332.457031 464.21875 C 347.8125 471.769531 382.972656 489.246094 384.679688 489.867188 C 384.65625 494.972656 385.4375 499.996094 386.988281 504.863281 C 385.46875 504.609375 383.972656 504.144531 382.554688 503.410156 C 266.484375 443.273438 247.871094 433.632812 244.601562 432.085938 L 244.652344 431.988281 C 237.753906 428.40625 235.691406 420.851562 235.140625 415.152344 C 235.65625 415.5625 236.167969 415.980469 236.789062 416.28125 C 308.132812 451.121094 303.980469 449.347656 304.757812 449.347656 C 306.640625 449.347656 307.203125 446.800781 305.539062 445.988281 L 238.347656 413.101562 C 234.375 411.160156 234.128906 405.429688 237.878906 403.175781 C 278.144531 378.203125 318.679688 354.007812 367.148438 325.363281 C 372.015625 322.488281 377.84375 320.925781 383.175781 321.042969 C 387.398438 321.140625 387.664062 321.601562 423.703125 337.429688 C 424.597656 337.820312 425.640625 337.417969 426.035156 336.519531 C 426.429688 335.625 426.019531 334.582031 425.125 334.1875 C 387.910156 317.855469 388.0625 317.617188 383.257812 317.503906 C 377.289062 317.386719 370.765625 319.113281 365.347656 322.3125 C 316.859375 350.96875 276.304688 375.175781 236.039062 400.152344 Z M 392.8125 488.902344 C 537.429688 389.4375 528.964844 396.058594 530.832031 393.617188 C 531.695312 398.917969 531.183594 405.761719 524.828125 410.359375 L 398.132812 502.222656 C 395.917969 503.847656 393.367188 504.777344 390.753906 505.015625 C 389.121094 500.332031 388.265625 495.34375 388.226562 490.398438 C 389.839844 490.308594 391.4375 489.84375 392.8125 488.902344 Z M 392.8125 488.902344 " fill-opacity="1" fill-rule="nonzero"/></g><path fill="#f9f9f9" d="M 444.503906 354.027344 C 444.085938 353.136719 443.019531 352.75 442.152344 353.167969 C 435.460938 356.273438 428.882812 359.621094 422.367188 363.082031 C 412.175781 357.9375 401.890625 352.953125 391.492188 348.183594 C 396.59375 345.539062 401.726562 342.972656 406.917969 340.558594 C 407.800781 340.148438 408.1875 339.101562 407.773438 338.210938 C 407.363281 337.320312 406.304688 336.929688 405.421875 337.351562 C 399.34375 340.179688 393.328125 343.191406 387.375 346.335938 C 377.664062 341.9375 367.894531 337.667969 358.03125 333.605469 C 357.144531 333.238281 356.097656 333.671875 355.722656 334.570312 C 355.351562 335.472656 355.78125 336.503906 356.6875 336.878906 C 365.695312 340.585938 374.625 344.484375 383.511719 348.480469 C 370.761719 355.390625 358.363281 363.019531 346.371094 371.28125 C 337.691406 367.382812 328.886719 363.566406 319.976562 359.882812 C 319.078125 359.507812 318.042969 359.9375 317.664062 360.839844 C 317.292969 361.746094 317.722656 362.78125 318.625 363.15625 C 326.828125 366.542969 334.929688 370.054688 342.9375 373.628906 C 331.949219 381.363281 321.328125 389.601562 311.179688 398.347656 C 300.777344 393.367188 290.1875 388.539062 279.46875 383.894531 C 278.582031 383.507812 277.535156 383.925781 277.140625 384.8125 C 276.753906 385.710938 277.164062 386.753906 278.0625 387.140625 C 288.265625 391.558594 298.339844 396.160156 308.253906 400.882812 C 299.148438 408.882812 290.398438 417.242188 282.121094 425.964844 C 281.449219 426.675781 281.476562 427.792969 282.1875 428.46875 C 282.898438 429.136719 284.015625 429.109375 284.6875 428.398438 C 293.230469 419.390625 302.261719 410.757812 311.695312 402.53125 C 321.320312 407.167969 330.773438 411.921875 339.992188 416.785156 C 340.019531 418.613281 340.027344 419.71875 340.183594 420.808594 C 332.84375 427.429688 325.59375 434.46875 318.632812 441.796875 C 317.960938 442.503906 317.992188 443.625 318.699219 444.296875 C 319.410156 444.972656 320.53125 444.941406 321.203125 444.230469 C 328.042969 437.027344 335.167969 430.109375 342.378906 423.597656 C 343.015625 423.933594 343.6875 424.183594 344.289062 424.390625 C 347.074219 425.332031 369.152344 436.292969 378.480469 441.121094 C 371.324219 447.9375 364.316406 455.058594 357.667969 462.402344 C 357.011719 463.128906 357.066406 464.246094 357.792969 464.902344 C 358.519531 465.554688 359.632812 465.503906 360.289062 464.78125 C 367.300781 457.035156 374.691406 449.511719 382.261719 442.375 C 383.011719 442.367188 383.730469 442.203125 384.613281 441.722656 C 415.082031 459.867188 415.3125 461.511719 416.855469 461.511719 C 418.601562 461.511719 419.300781 459.226562 417.828125 458.265625 C 408.25 451.988281 398.113281 445.683594 387.726562 439.476562 C 410.363281 422.953125 424.285156 415.429688 424.761719 415.113281 C 452.410156 430.878906 453.121094 432.617188 454.585938 432.617188 C 456.363281 432.617188 457.03125 430.285156 455.523438 429.347656 C 445.925781 423.367188 436.742188 417.898438 427.511719 412.621094 C 429.289062 410.109375 428.609375 408.085938 428.433594 404.753906 C 437.914062 398.089844 447.785156 391.867188 457.910156 386.046875 C 489.546875 403.90625 491.019531 406.351562 492.617188 406.351562 C 494.390625 406.351562 495.0625 404.027344 493.558594 403.082031 C 483.042969 396.519531 472.355469 390.164062 461.511719 384.011719 C 467.871094 380.445312 474.292969 376.996094 480.835938 373.800781 C 481.710938 373.371094 482.078125 372.3125 481.648438 371.429688 C 481.21875 370.554688 480.15625 370.171875 479.28125 370.621094 C 472.027344 374.164062 464.917969 378.003906 457.890625 381.992188 C 447.476562 376.144531 436.929688 370.476562 426.253906 365.023438 C 431.988281 362.019531 437.769531 359.101562 443.640625 356.375 C 444.527344 355.964844 444.914062 354.914062 444.503906 354.027344 Z M 387.542969 350.289062 C 397.976562 355.039062 408.304688 359.992188 418.535156 365.121094 C 409.144531 370.238281 399.96875 375.683594 391.101562 381.472656 C 386.871094 379.613281 385.621094 378.75 381.046875 381.984375 C 379.285156 383.214844 380.035156 382.605469 375.824219 385.128906 C 367.453125 381 358.875 376.945312 350.152344 372.980469 C 362.230469 364.753906 374.703125 357.136719 387.542969 350.289062 Z M 373.0625 422.609375 C 367.683594 419.976562 349.542969 411.261719 344.535156 409.34375 C 345.136719 408.980469 345.859375 408.285156 354.351562 402.675781 C 375.695312 388.488281 378.382812 388.175781 383.089844 384.875 C 385.859375 382.925781 386.300781 383.117188 388.050781 383.996094 C 398.226562 388.425781 420.1875 399.226562 423.203125 400.523438 C 410.765625 407.589844 397.398438 416.023438 384.40625 425.1875 C 381.175781 427.5 383.257812 427.472656 373.0625 422.609375 Z M 346.742188 375.3125 C 355.363281 379.207031 363.820312 383.203125 372.101562 387.261719 C 361.917969 393.339844 350.617188 400.769531 342.554688 406.410156 C 342.011719 406.78125 341.234375 407.339844 340.757812 408.167969 C 339.878906 408.90625 340.109375 409.539062 340.023438 412.824219 C 331.738281 408.476562 323.273438 404.214844 314.667969 400.046875 C 324.917969 391.285156 335.640625 383.039062 346.742188 375.3125 Z M 418.386719 414.6875 C 412.914062 417.878906 398.289062 427.335938 384.714844 437.277344 C 383.796875 437.957031 383.128906 438.734375 382.335938 438.835938 C 380.132812 438.167969 383.386719 439.609375 375.59375 435.652344 C 373.589844 434.644531 348.925781 422.222656 345.425781 421.035156 C 344.886719 420.847656 343.875 420.507812 343.640625 420.242188 C 343.433594 416.855469 343.5 414.847656 343.558594 412.75 C 344.066406 412.980469 351.589844 416.027344 371.523438 425.796875 C 377.238281 428.511719 378.65625 429.449219 380.238281 429.921875 L 380.238281 436.917969 C 380.238281 437.894531 381.03125 438.6875 382.007812 438.6875 C 382.984375 438.6875 383.777344 437.894531 383.777344 436.917969 L 383.777344 429.769531 C 386.601562 428.53125 398.542969 418.632812 424.808594 403.671875 C 425.207031 408.710938 425.21875 408.90625 425.097656 409.574219 C 424.667969 411.867188 420.378906 413.410156 418.386719 414.6875 Z M 454.277344 384.039062 C 445.195312 389.324219 436.34375 394.960938 427.777344 400.921875 C 427.707031 400.746094 427.636719 400.570312 427.554688 400.40625 C 427.554688 400.390625 427.5625 400.359375 427.5625 400.34375 C 427.5625 398.386719 425.183594 397.472656 423.488281 396.828125 C 420.976562 395.898438 421.347656 395.433594 394.933594 383.238281 C 403.824219 377.511719 413.015625 372.117188 422.421875 367.0625 C 433.171875 372.515625 443.789062 378.183594 454.277344 384.039062 Z M 454.277344 384.039062 " fill-opacity="1" fill-rule="nonzero"/><path fill="#f9f9f9" d="M 471.1875 307.949219 C 477.570312 309.835938 480.292969 312.125 485.09375 306.808594 C 488.273438 303.628906 488.714844 302.964844 489.183594 301.691406 C 489.226562 301.648438 489.28125 301.640625 489.324219 301.589844 C 490.835938 299.835938 489.210938 297.007812 488.800781 295.550781 C 485.898438 285.179688 482.851562 274.933594 479.6875 264.84375 C 477.304688 258.613281 478.546875 256.203125 471.59375 254.570312 C 471.449219 254.539062 450.832031 247.664062 427.308594 242.257812 C 426.183594 241.980469 424.175781 241.84375 423.449219 242.429688 C 420.496094 244.792969 417.707031 247.304688 415.175781 249.878906 C 412.949219 252.105469 414.996094 255.210938 415.398438 256.480469 C 418.917969 268.667969 418.855469 267.511719 423.660156 285.394531 C 426.519531 293.390625 424.78125 296.953125 431.296875 297.996094 C 449.839844 301.863281 464.621094 305.902344 471.1875 307.949219 Z M 470.785156 258.019531 C 474.46875 258.875 474.113281 258.585938 476.308594 265.902344 C 479.988281 277.617188 485.164062 295.640625 486.15625 298.636719 C 469.429688 293.058594 455.621094 289.503906 440.601562 286.074219 C 438.722656 285.730469 438.414062 285.617188 437.832031 283.296875 C 437.675781 282.757812 428.664062 251.101562 426.449219 245.691406 C 454.109375 252.011719 465.761719 256.8125 470.785156 258.019531 Z M 432.632812 294.628906 C 428.59375 293.875 430.167969 295.15625 427.074219 284.457031 C 418.109375 251.105469 417.523438 253.039062 417.691406 252.367188 C 419.425781 250.605469 421.3125 248.890625 423.261719 247.222656 C 424.328125 249.730469 430.996094 271.964844 434.226562 283.5 C 434.492188 284.515625 434.691406 285.40625 435.125 286.328125 L 429.917969 291.023438 C 428.710938 292.113281 429.5 294.105469 431.101562 294.105469 C 432.289062 294.105469 432.332031 293.410156 437.59375 288.863281 C 439.402344 289.722656 460.386719 293.574219 484.902344 301.949219 C 484.558594 302.324219 482.941406 303.957031 482.464844 304.4375 C 480.488281 306.625 479.960938 307.398438 474.1875 305.253906 C 467.097656 302.609375 444.707031 297.113281 432.632812 294.628906 Z M 432.632812 294.628906 " fill-opacity="1" fill-rule="nonzero"/><path fill="#f9f9f9" d="M 455.480469 279.625 L 467.191406 281.789062 C 468.199219 281.957031 469.082031 281.296875 469.253906 280.367188 C 469.433594 279.40625 468.796875 278.484375 467.835938 278.304688 L 456.117188 276.117188 L 453.019531 259.574219 C 452.839844 258.617188 451.898438 257.960938 450.957031 258.164062 C 449.996094 258.34375 449.359375 259.265625 449.539062 260.230469 L 452.636719 276.769531 C 452.972656 278.574219 453.808594 279.292969 455.480469 279.625 Z M 455.480469 279.625 " fill-opacity="1" fill-rule="nonzero"/><path fill="#f9f9f9" d="M 397.488281 401 C 396.4375 398.886719 394.117188 397.542969 391.71875 397.710938 C 386.0625 398.0625 382.671875 405.394531 377.203125 405.496094 C 374.007812 405.324219 372.519531 401.769531 374.292969 398.894531 C 375.40625 397.09375 377.710938 395.789062 379.890625 395.730469 C 382.257812 395.664062 382.121094 392.035156 379.789062 392.191406 C 376.433594 392.289062 373.015625 394.234375 371.28125 397.035156 C 366.851562 404.21875 374.363281 413.605469 384.089844 406.496094 C 386.898438 404.429688 389.527344 401.390625 391.933594 401.242188 C 392.90625 401.253906 393.898438 401.734375 394.316406 402.578125 C 396.003906 405.972656 391.019531 412.046875 384.746094 410.703125 C 383.785156 410.523438 382.851562 411.109375 382.648438 412.066406 C 382.441406 413.019531 383.054688 413.960938 384.007812 414.167969 C 393.003906 416.082031 400.59375 407.261719 397.488281 401 Z M 397.488281 401 " fill-opacity="1" fill-rule="nonzero"/><g clip-path="url(#efb670c387)"><path fill="#f9f9f9" d="M 516.585938 505.152344 C 516.585938 505.148438 516.585938 505.144531 516.585938 505.136719 C 516.757812 504.15625 516.667969 503.207031 516.589844 502.363281 C 516.375 500.050781 516.523438 498.050781 515.636719 496.285156 C 515.539062 494.140625 512.792969 493.464844 511.25 492.75 C 508.925781 491.628906 498.308594 486.277344 485.652344 480.566406 C 478.140625 477.128906 479.0625 476.734375 472.785156 480.578125 C 464.363281 485.246094 450.273438 494.035156 439.757812 501.527344 C 438.832031 502.113281 437.390625 503.378906 437.328125 504.40625 C 437.136719 507.6875 437.136719 511.019531 437.328125 514.308594 C 437.503906 517.136719 440.625 517.644531 441.957031 518.226562 C 456.832031 525.308594 454.171875 524 471.597656 532.839844 C 474.679688 534.601562 476.339844 534.300781 478.664062 532.457031 C 484.632812 527.734375 505.402344 513.808594 510.367188 511.25 C 512.75 510.007812 516.015625 508.316406 516.585938 505.152344 Z M 475.863281 482.765625 C 478.433594 480.960938 478.660156 481.242188 480.167969 481.921875 L 484.179688 483.785156 C 501.054688 491.40625 507.269531 494.929688 511.136719 496.523438 C 510.484375 496.902344 503.003906 501.269531 503.480469 500.992188 C 492.796875 507.378906 485.484375 512.382812 476.28125 518.792969 C 474.8125 519.964844 474.4375 519.800781 472.832031 518.894531 C 469.140625 516.8125 443.382812 504.84375 441.945312 504.316406 C 458.105469 492.847656 475.855469 482.773438 475.863281 482.765625 Z M 442.339844 514.609375 C 441.871094 514.453125 440.996094 514.160156 440.863281 514.097656 C 440.738281 511.953125 440.695312 509.792969 440.742188 507.640625 C 444.703125 509.082031 472.621094 522.726562 473.09375 522.871094 C 473.179688 529.09375 472.921875 528.988281 473.308594 529.742188 C 470.089844 528.105469 445.78125 515.730469 442.339844 514.609375 Z M 485.851562 522.914062 C 481.8125 525.6875 477.375 528.964844 476.449219 529.695312 C 476.785156 529 476.566406 529.078125 476.632812 522.683594 C 478.621094 521.789062 488.300781 514.191406 505.300781 504.027344 L 512.867188 499.621094 C 512.914062 500.304688 512.929688 501.039062 512.980469 501.539062 C 513.230469 508.449219 515.621094 501.992188 485.851562 522.914062 Z M 485.851562 522.914062 " fill-opacity="1" fill-rule="nonzero"/></g><path fill="#f9f9f9" d="M 475.597656 509.6875 C 476.425781 510.234375 477.515625 509.992188 478.050781 509.1875 C 478.589844 508.375 478.363281 507.273438 477.546875 506.738281 C 475.757812 505.554688 473.925781 504.402344 472.070312 503.285156 C 473.191406 503.210938 476.960938 502.921875 479.890625 502.796875 C 481.019531 502.75 481.808594 501.667969 481.527344 500.585938 C 480.996094 498.527344 480.394531 496.347656 479.703125 493.8125 C 483.355469 495.449219 486.433594 497.082031 489.390625 498.945312 C 490.230469 499.46875 491.3125 499.21875 491.832031 498.386719 C 492.351562 497.5625 492.105469 496.46875 491.277344 495.949219 C 487.285156 493.4375 483.109375 491.332031 477.730469 489.117188 C 476.378906 488.546875 474.984375 489.792969 475.34375 491.195312 C 476.039062 493.894531 476.921875 497.023438 477.546875 499.375 C 473.757812 499.589844 469.835938 499.941406 465.984375 500.101562 C 464.1875 500.183594 463.644531 502.570312 465.207031 503.425781 C 468.742188 505.363281 472.238281 507.46875 475.597656 509.6875 Z M 475.597656 509.6875 " fill-opacity="1" fill-rule="nonzero"/><path fill="#f9f9f9" d="M 409.539062 238.28125 L 396.855469 233.171875 C 395.949219 232.804688 394.917969 233.246094 394.554688 234.148438 C 394.1875 235.054688 394.625 236.085938 395.53125 236.453125 C 408.710938 241.710938 408.242188 241.691406 408.878906 241.691406 C 410.820312 241.691406 411.335938 239 409.539062 238.28125 Z M 409.539062 238.28125 " fill-opacity="1" fill-rule="nonzero"/><path fill="#f9f9f9" d="M 383.28125 268.832031 L 408.132812 265.082031 C 409.097656 264.933594 409.765625 264.03125 409.617188 263.070312 C 409.472656 262.101562 408.550781 261.417969 407.605469 261.582031 L 382.753906 265.332031 C 380.441406 265.683594 380.964844 269.199219 383.28125 268.832031 Z M 383.28125 268.832031 " fill-opacity="1" fill-rule="nonzero"/><path fill="#f9f9f9" d="M 400.441406 290.363281 C 399.734375 291.039062 399.710938 292.160156 400.382812 292.867188 C 401.054688 293.566406 402.171875 293.601562 402.882812 292.925781 L 411.902344 284.316406 C 412.605469 283.640625 412.628906 282.519531 411.957031 281.816406 C 411.277344 281.101562 410.160156 281.078125 409.453125 281.753906 Z M 400.441406 290.363281 " fill-opacity="1" fill-rule="nonzero"/></svg>